<svg width="485" height="525" viewBox="0 0 485 525" fill="none" xmlns="http://www.w3.org/2000/svg">
<path d="M158.203 0H192.969C283.333 0 335.026 5.72917 348.047 17.1875C376.432 35.6771 390.625 64.8438 390.625 104.688V112.5C390.625 136.979 376.432 154.167 348.047 164.062L313.281 168.75L311.719 167.188C323.698 144.271 329.688 121.875 329.688 100C329.688 74.4792 311.589 58.8542 275.391 53.125C264.193 51.0417 246.615 50 222.656 50H132.031C94.5312 50 65.3646 63.5417 44.5312 90.625H41.4062C64.8438 30.2083 103.776 0 158.203 0ZM377.734 25H380.859C433.724 59.375 460.156 104.688 460.156 160.938C460.156 206.771 418.88 229.688 336.328 229.688H169.922L159.766 228.125C144.141 228.125 129.297 233.333 115.234 243.75L113.672 242.188C135.547 200.521 163.021 179.688 196.094 179.688L219.141 181.25L314.844 179.688C364.844 179.688 394.01 160.417 402.344 121.875L403.906 106.25C403.906 74.7396 395.182 47.6562 377.734 25ZM128.516 62.5H252.344C295.052 62.5 316.406 74.4792 316.406 98.4375V107.812L313.281 110.938C295.573 106.771 278.516 104.688 262.109 104.688L148.438 103.125C106.51 103.125 79.5573 135.938 67.5781 201.562L52.7344 256.25H49.6094C36.3281 205.469 29.6875 173.177 29.6875 159.375C29.6875 116.667 53.2552 85.4167 100.391 65.625L128.516 62.5ZM155.078 115.625L158.203 118.75L141.797 187.5C110.026 213.802 94.1406 244.531 94.1406 279.688V292.188C94.1406 309.635 100.13 326.302 112.109 342.188L89.0625 456.25L3.125 481.25V479.688C59.375 270.052 91.7969 157.031 100.391 140.625C112.891 123.958 131.12 115.625 155.078 115.625ZM430.469 226.562H432.031V228.125C405.469 268.75 366.927 289.062 316.406 289.062H224.219C207.031 289.062 194.922 293.229 187.891 301.562V310.938C187.891 314.323 215.885 358.073 271.875 442.188V443.75H270.312C195.573 395.052 147.786 361.719 126.953 343.75C112.63 323.698 105.469 305.99 105.469 290.625C109.896 257.292 127.474 240.625 158.203 240.625H323.047C369.141 240.625 404.948 235.938 430.469 226.562ZM232.422 301.562H273.828C354.036 406.771 394.141 460.938 394.141 464.062L342.969 521.875C251.823 390.885 206.25 322.656 206.25 317.188V310.938C209.375 304.688 218.099 301.562 232.422 301.562ZM321.484 342.188H323.047C396.745 375.521 450.651 401.042 484.766 418.75V420.312L403.906 454.688L321.484 343.75V342.188ZM123.828 356.25C145.703 372.656 156.641 384.115 156.641 390.625L186.328 484.375H184.766C129.818 469.01 102.344 459.635 102.344 456.25C114.062 389.583 121.224 356.25 123.828 356.25ZM483.203 434.375V435.938C450.13 475.521 430.339 496.354 423.828 498.438L357.812 525C388.542 485.677 406.641 465.885 412.109 465.625L483.203 434.375ZM90.625 467.188L186.328 496.875V498.438C186.328 501.042 153.906 509.896 89.0625 525L0 498.438V496.875C0.78125 495.052 30.9896 485.156 90.625 467.188Z" fill="#FF6B35"/>
</svg>
